<mxfile host="app.diagrams.net" modified="2024-01-29T02:18:45.549Z" agent="Mozilla/5.0 (Windows NT 10.0; Win64; x64) AppleWebKit/537.36 (KHTML, like Gecko) Chrome/120.0.0.0 Safari/537.36 Edg/120.0.0.0" version="23.0.2" etag="LHqK1jMvpyKBGdHCaFlo" type="github">
  <diagram name="페이지-1" id="HfNXO7sj9IUsSprqC-8Q">
    <mxGraphModel>
      <root>
        <mxCell id="0" />
        <mxCell id="1" parent="0" />
      </root>
    </mxGraphModel>
  </diagram>
</mxfile>
